<?xml version="1.0" encoding="UTF-8" ?>
<!DOCTYPE svg PUBLIC "-//W3C//DTD SVG 1.1//EN" "http://www.w3.org/Graphics/SVG/1.1/DTD/svg11.dtd">
<svg width="474pt" height="474pt" viewBox="0 0 474 474" version="1.1" xmlns="http://www.w3.org/2000/svg">
<path fill="#fefeff" d=" M 0.00 0.00 L 302.22 0.00 C 293.44 3.49 286.11 10.12 281.01 18.01 C 278.66 21.53 278.62 25.90 278.71 29.98 C 278.89 35.28 278.17 41.05 281.20 45.74 C 283.60 49.67 285.59 54.26 289.69 56.72 C 292.46 58.51 295.59 59.79 298.04 62.04 C 299.63 63.59 299.76 65.97 299.97 68.04 C 300.25 74.14 299.32 80.22 299.72 86.32 C 300.18 94.02 299.37 101.71 299.68 109.42 C 295.47 109.79 291.18 110.46 287.46 112.59 C 279.41 117.10 271.58 122.50 266.06 130.03 C 261.88 135.81 257.27 141.79 256.29 149.08 C 255.06 157.67 253.40 166.54 255.69 175.11 C 256.83 181.61 259.13 187.90 263.10 193.21 C 234.16 222.66 204.64 251.56 175.66 280.97 C 170.79 276.52 165.00 273.33 158.84 271.06 C 151.68 267.44 143.58 266.83 135.89 264.99 C 134.85 260.82 133.99 256.56 134.22 252.24 C 134.64 243.69 133.61 235.14 134.28 226.59 C 145.21 221.95 155.76 215.67 163.08 206.09 C 168.02 199.35 173.23 192.06 173.97 183.46 C 174.57 177.19 175.73 170.81 174.42 164.54 C 173.39 159.68 172.83 154.63 170.83 150.03 C 167.87 144.22 164.59 138.45 159.93 133.81 C 164.24 127.47 168.93 121.40 173.29 115.09 C 177.99 115.84 182.77 116.98 187.55 116.33 C 197.65 114.31 207.20 108.04 211.41 98.38 C 215.90 90.87 214.80 81.80 212.80 73.71 C 211.98 70.45 209.84 67.78 207.82 65.18 C 205.42 62.19 203.04 58.91 199.42 57.30 C 193.74 54.71 187.61 51.81 181.18 53.08 C 174.92 54.14 168.13 54.92 163.01 59.04 C 158.43 62.71 154.29 67.47 153.04 73.36 C 151.82 79.08 150.46 85.01 151.42 90.87 C 152.15 95.03 155.60 98.45 155.62 102.71 C 152.28 109.43 147.19 115.14 143.03 121.37 C 135.83 118.93 128.54 116.27 120.84 116.32 C 119.68 106.15 117.60 96.12 116.44 85.96 C 115.94 81.84 114.50 77.90 114.11 73.77 C 113.70 71.15 115.90 69.27 117.55 67.60 C 121.54 63.91 125.80 60.25 128.21 55.27 C 130.90 50.26 130.17 44.39 130.23 38.93 C 130.52 31.72 126.64 25.15 122.19 19.80 C 117.24 15.30 111.39 11.03 104.53 10.35 C 99.85 9.84 94.96 9.05 90.36 10.47 C 81.20 13.68 73.46 20.54 69.37 29.37 C 65.93 35.42 66.73 42.61 67.94 49.15 C 68.93 55.08 72.41 60.28 76.44 64.60 C 81.38 68.99 87.56 71.72 93.77 73.80 C 95.47 88.87 98.14 103.82 100.77 118.76 C 93.85 122.42 87.14 126.48 80.93 131.24 C 76.21 126.35 69.48 123.98 64.93 118.95 C 60.96 112.26 65.50 103.84 61.95 96.95 C 59.38 92.12 57.05 86.69 52.29 83.59 C 48.31 80.98 44.27 77.95 39.40 77.35 C 35.53 76.84 31.61 76.59 27.69 76.62 C 22.38 76.63 17.78 79.69 13.55 82.57 C 7.17 86.86 3.70 93.96 0.00 100.44 L 0.00 0.00 Z" />
<path fill="#9156cd" d=" M 302.22 0.00 L 304.45 0.00 C 309.04 1.03 313.78 1.09 318.37 0.00 L 319.06 0.00 C 322.49 2.54 326.20 4.66 329.82 6.92 C 334.31 9.63 336.64 14.54 339.22 18.88 C 341.66 22.86 341.23 27.68 341.37 32.15 C 341.37 36.60 341.69 41.38 339.34 45.38 C 335.98 51.14 331.11 55.89 325.64 59.65 C 323.47 61.41 320.47 63.02 320.16 66.11 C 319.49 72.21 320.70 78.33 320.32 84.44 C 319.78 92.80 320.67 101.15 320.27 109.51 C 327.94 109.95 334.62 113.76 341.04 117.62 C 351.07 108.12 360.51 98.03 370.50 88.49 C 372.30 86.67 374.29 84.93 375.51 82.64 C 375.32 76.88 372.56 71.34 373.55 65.50 C 374.83 51.78 386.18 39.79 399.83 37.80 C 406.30 36.80 412.94 38.07 419.10 40.09 C 423.65 42.29 427.16 46.17 430.66 49.73 C 439.35 61.68 438.12 79.50 428.61 90.61 C 422.18 97.87 412.13 100.60 402.72 100.55 C 398.76 100.46 395.10 98.66 391.20 98.20 C 389.43 98.98 388.05 100.37 386.67 101.68 C 376.54 112.05 366.29 122.31 355.91 132.43 C 358.13 135.75 360.62 138.99 361.94 142.81 C 363.09 146.23 363.60 149.81 364.23 153.35 C 371.04 153.71 377.87 154.14 384.69 153.72 C 392.22 153.26 399.79 154.64 407.30 153.57 C 408.84 153.28 410.68 153.09 411.59 151.59 C 414.70 147.39 416.71 142.26 421.02 139.03 C 428.37 132.67 438.74 131.97 448.00 132.67 C 454.70 134.38 461.98 137.03 466.02 143.03 C 468.48 146.45 471.61 149.74 472.28 154.06 C 472.97 157.93 473.42 161.84 474.00 165.73 L 474.00 171.11 C 470.93 176.54 468.52 182.54 463.84 186.85 C 459.54 190.83 454.28 193.98 448.52 195.24 C 443.53 195.90 438.47 195.16 433.51 194.59 C 427.80 194.04 423.54 189.81 419.19 186.51 C 415.83 183.96 414.69 179.74 412.80 176.18 C 412.50 175.30 411.89 174.83 410.99 174.77 C 401.04 173.24 390.97 174.88 380.98 174.16 C 375.77 173.82 370.55 174.20 365.41 175.00 C 361.00 188.95 353.21 202.61 340.43 210.42 C 333.71 214.42 326.57 218.58 318.54 218.82 C 311.97 219.00 305.23 220.13 298.77 218.36 C 292.45 216.78 286.00 214.97 280.74 210.94 C 251.36 239.84 222.50 269.28 193.16 298.23 C 202.33 309.76 207.53 324.26 208.59 338.90 C 218.61 339.38 228.64 340.20 238.68 339.73 C 242.01 339.59 245.34 339.61 248.67 339.67 C 249.53 333.57 251.58 327.49 255.85 322.90 C 261.24 317.00 266.70 311.02 273.22 306.34 C 280.25 301.28 289.14 300.88 297.33 299.14 C 301.86 298.08 306.49 298.91 310.98 299.77 C 321.89 301.17 332.37 306.33 340.07 314.18 C 344.77 310.84 349.52 307.54 354.16 304.11 C 355.67 302.83 357.51 301.65 358.31 299.76 C 358.87 294.15 356.65 288.46 358.09 282.90 C 361.60 272.33 370.18 263.57 380.76 260.02 C 385.96 259.01 391.29 259.98 396.53 260.18 C 402.00 260.28 406.22 264.10 410.37 267.16 C 414.48 270.09 416.76 274.76 418.85 279.20 C 421.45 284.75 421.07 291.07 420.61 297.02 C 420.27 302.07 418.19 306.95 414.72 310.65 C 410.11 315.70 404.71 320.83 397.72 322.05 C 392.73 322.77 387.63 322.87 382.62 322.31 C 378.25 321.84 374.61 319.22 371.02 316.92 C 364.56 321.47 358.33 326.36 352.77 332.00 C 355.37 338.71 358.05 345.66 357.24 353.00 C 366.17 353.91 374.93 355.89 383.83 356.97 C 389.40 357.66 394.83 359.63 400.49 359.48 C 404.43 359.36 406.44 355.39 408.98 352.95 C 415.79 344.86 427.19 343.33 437.15 343.66 C 443.77 344.89 450.51 347.69 454.99 352.91 C 457.66 355.93 460.69 358.91 461.93 362.86 C 462.96 366.13 463.60 369.51 464.13 372.89 C 465.33 379.68 462.17 386.22 459.04 392.04 C 454.86 399.76 446.58 404.05 438.45 406.43 C 434.95 407.50 431.24 407.31 427.71 406.53 C 423.08 405.51 418.04 404.82 414.30 401.65 C 410.71 398.58 406.75 395.52 404.85 391.06 C 403.35 387.95 402.44 384.48 400.23 381.76 C 397.81 379.49 394.22 379.40 391.13 378.90 C 384.00 378.27 377.04 376.58 369.93 375.83 C 364.70 375.27 359.55 374.16 354.44 372.95 C 351.99 380.22 347.59 386.55 343.06 392.66 C 347.38 399.02 351.86 405.26 356.33 411.52 C 362.66 410.75 369.46 408.86 375.57 411.63 C 380.33 413.85 385.63 415.76 388.96 420.05 C 391.89 423.67 394.92 427.51 395.96 432.17 C 397.28 438.07 398.52 444.44 396.40 450.32 C 394.11 456.96 390.44 463.52 384.45 467.46 C 380.34 470.13 375.82 472.11 371.32 474.00 L 365.67 474.00 C 359.55 472.81 352.82 472.40 347.80 468.29 C 344.22 465.47 340.10 462.80 338.26 458.45 C 336.49 454.41 334.62 450.32 333.91 445.94 C 333.29 439.81 335.22 433.84 336.86 428.03 C 337.60 425.26 338.51 422.03 336.58 419.52 C 333.15 414.54 329.02 410.06 325.96 404.81 C 320.27 407.08 314.59 409.96 308.34 410.16 C 304.06 410.28 299.76 410.29 295.49 410.04 C 277.01 407.89 259.66 396.10 251.89 379.03 C 249.41 374.75 248.00 369.96 247.72 365.02 C 234.18 365.98 220.65 364.70 207.13 363.95 C 205.61 370.25 204.81 376.89 201.45 382.56 C 196.07 391.51 190.16 400.32 182.25 407.26 C 176.98 412.13 170.89 415.97 164.93 419.92 C 160.73 422.69 155.84 424.11 150.94 425.05 C 144.18 426.33 137.52 428.77 130.55 428.38 C 125.03 428.06 119.47 428.45 113.99 427.61 C 103.79 425.55 93.78 422.22 84.73 417.05 C 79.14 413.15 73.31 409.39 68.98 404.03 C 53.36 388.81 44.70 366.75 45.78 344.97 C 45.46 338.90 45.96 332.78 47.97 327.00 C 51.05 317.81 52.95 307.84 59.17 300.10 C 64.03 294.01 69.80 288.75 75.28 283.23 C 84.56 273.84 97.73 270.21 110.05 266.69 C 109.55 253.21 108.09 239.74 108.81 226.23 C 104.31 225.41 99.66 224.79 95.56 222.62 C 87.64 218.32 80.14 212.82 74.80 205.47 C 71.39 200.19 67.48 194.95 66.20 188.67 C 65.18 184.06 63.75 179.47 63.71 174.72 C 63.96 165.58 64.05 155.90 69.17 147.92 C 62.81 144.08 56.92 139.56 51.18 134.88 C 42.99 140.00 32.78 141.08 23.47 139.07 C 17.42 136.86 11.10 133.92 7.38 128.41 C 4.94 124.89 1.74 121.44 1.37 116.96 C 0.96 112.73 0.65 108.49 0.00 104.29 L 0.00 100.44 C 3.70 93.96 7.17 86.86 13.55 82.57 C 17.78 79.69 22.38 76.63 27.69 76.62 C 31.61 76.59 35.53 76.84 39.40 77.35 C 44.27 77.95 48.31 80.98 52.29 83.59 C 57.05 86.69 59.38 92.12 61.95 96.95 C 65.50 103.84 60.96 112.26 64.93 118.95 C 69.48 123.98 76.21 126.35 80.93 131.24 C 87.14 126.48 93.85 122.42 100.77 118.76 C 98.14 103.82 95.47 88.87 93.77 73.80 C 87.56 71.72 81.38 68.99 76.44 64.60 C 72.41 60.28 68.93 55.08 67.94 49.15 C 66.73 42.61 65.93 35.42 69.37 29.37 C 73.46 20.54 81.20 13.68 90.36 10.47 C 94.96 9.05 99.85 9.84 104.53 10.35 C 111.39 11.03 117.24 15.30 122.19 19.80 C 126.64 25.15 130.52 31.72 130.23 38.93 C 130.17 44.39 130.90 50.26 128.21 55.27 C 125.80 60.25 121.54 63.91 117.55 67.60 C 115.90 69.27 113.70 71.15 114.11 73.77 C 114.50 77.90 115.94 81.84 116.44 85.96 C 117.60 96.12 119.68 106.15 120.84 116.32 C 128.54 116.27 135.83 118.93 143.03 121.37 C 147.19 115.14 152.28 109.43 155.62 102.71 C 155.60 98.45 152.15 95.03 151.42 90.87 C 150.46 85.01 151.82 79.08 153.04 73.36 C 154.29 67.47 158.43 62.71 163.01 59.04 C 168.13 54.92 174.92 54.14 181.18 53.08 C 187.61 51.81 193.74 54.71 199.42 57.30 C 203.04 58.91 205.42 62.19 207.82 65.18 C 209.84 67.78 211.98 70.45 212.80 73.71 C 214.80 81.80 215.90 90.87 211.41 98.38 C 207.20 108.04 197.65 114.31 187.55 116.33 C 182.77 116.98 177.99 115.84 173.29 115.09 C 168.93 121.40 164.24 127.47 159.93 133.81 C 164.59 138.45 167.87 144.22 170.83 150.03 C 172.83 154.63 173.39 159.68 174.42 164.54 C 175.73 170.81 174.57 177.19 173.97 183.46 C 173.23 192.06 168.02 199.35 163.08 206.09 C 155.76 215.67 145.21 221.95 134.28 226.59 C 133.61 235.14 134.64 243.69 134.22 252.24 C 133.99 256.56 134.85 260.82 135.89 264.99 C 143.58 266.83 151.68 267.44 158.84 271.06 C 165.00 273.33 170.79 276.52 175.66 280.97 C 204.64 251.56 234.16 222.66 263.10 193.21 C 259.13 187.90 256.83 181.61 255.69 175.11 C 253.40 166.54 255.06 157.67 256.29 149.08 C 257.27 141.79 261.88 135.81 266.06 130.03 C 271.58 122.50 279.41 117.10 287.46 112.59 C 291.18 110.46 295.47 109.79 299.68 109.42 C 299.37 101.71 300.18 94.02 299.72 86.32 C 299.32 80.22 300.25 74.14 299.97 68.04 C 299.76 65.97 299.63 63.59 298.04 62.04 C 295.59 59.79 292.46 58.51 289.69 56.72 C 285.59 54.26 283.60 49.67 281.20 45.74 C 278.17 41.05 278.89 35.28 278.71 29.98 C 278.62 25.90 278.66 21.53 281.01 18.01 C 286.11 10.12 293.44 3.49 302.22 0.00 Z" />
<path fill="#fefeff" d=" M 304.45 0.00 L 318.37 0.00 C 313.78 1.09 309.04 1.03 304.45 0.00 Z" />
<path fill="#fefeff" d=" M 319.06 0.00 L 474.00 0.00 L 474.00 165.73 C 473.42 161.84 472.97 157.93 472.28 154.06 C 471.61 149.74 468.48 146.45 466.02 143.03 C 461.98 137.03 454.70 134.38 448.00 132.67 C 438.74 131.97 428.37 132.67 421.02 139.03 C 416.71 142.26 414.70 147.39 411.59 151.59 C 410.68 153.09 408.84 153.28 407.30 153.57 C 399.79 154.64 392.22 153.26 384.69 153.72 C 377.87 154.14 371.04 153.71 364.23 153.35 C 363.60 149.81 363.09 146.23 361.94 142.81 C 360.62 138.99 358.13 135.75 355.91 132.43 C 366.29 122.31 376.54 112.05 386.67 101.68 C 388.05 100.37 389.43 98.98 391.20 98.20 C 395.10 98.66 398.76 100.46 402.72 100.55 C 412.13 100.60 422.18 97.87 428.61 90.61 C 438.12 79.50 439.35 61.68 430.66 49.73 C 427.16 46.17 423.65 42.29 419.10 40.09 C 412.94 38.07 406.30 36.80 399.83 37.80 C 386.18 39.79 374.83 51.78 373.55 65.50 C 372.56 71.34 375.32 76.88 375.51 82.64 C 374.29 84.93 372.30 86.67 370.50 88.49 C 360.51 98.03 351.07 108.12 341.04 117.62 C 334.62 113.76 327.94 109.95 320.27 109.51 C 320.67 101.15 319.78 92.80 320.32 84.44 C 320.70 78.33 319.49 72.21 320.16 66.11 C 320.47 63.02 323.47 61.41 325.64 59.65 C 331.11 55.89 335.98 51.14 339.34 45.38 C 341.69 41.38 341.37 36.60 341.37 32.15 C 341.23 27.68 341.66 22.86 339.22 18.88 C 336.64 14.54 334.31 9.63 329.82 6.92 C 326.20 4.66 322.49 2.54 319.06 0.00 Z" />
<path fill="#fefeff" d=" M 0.00 104.29 C 0.65 108.49 0.96 112.73 1.37 116.96 C 1.74 121.44 4.94 124.89 7.38 128.41 C 11.10 133.92 17.42 136.86 23.47 139.07 C 32.78 141.08 42.99 140.00 51.18 134.88 C 56.92 139.56 62.81 144.08 69.17 147.92 C 64.05 155.90 63.96 165.58 63.71 174.72 C 63.75 179.47 65.18 184.06 66.20 188.67 C 67.48 194.95 71.39 200.19 74.80 205.47 C 80.14 212.82 87.64 218.32 95.56 222.62 C 99.66 224.79 104.31 225.41 108.81 226.23 C 108.09 239.74 109.55 253.21 110.05 266.69 C 97.73 270.21 84.56 273.84 75.28 283.23 C 69.80 288.75 64.03 294.01 59.17 300.10 C 52.95 307.84 51.05 317.81 47.97 327.00 C 45.96 332.78 45.46 338.90 45.78 344.97 C 44.70 366.75 53.36 388.81 68.98 404.03 C 73.31 409.39 79.14 413.15 84.73 417.05 C 93.78 422.22 103.79 425.55 113.99 427.61 C 119.47 428.45 125.03 428.06 130.55 428.38 C 137.52 428.77 144.18 426.33 150.94 425.05 C 155.84 424.11 160.73 422.69 164.93 419.92 C 170.89 415.97 176.98 412.13 182.25 407.26 C 190.16 400.32 196.07 391.51 201.45 382.56 C 204.81 376.89 205.61 370.25 207.13 363.95 C 220.65 364.70 234.18 365.98 247.72 365.02 C 248.00 369.96 249.41 374.75 251.89 379.03 C 259.66 396.10 277.01 407.89 295.49 410.04 C 299.76 410.29 304.06 410.28 308.34 410.16 C 314.59 409.96 320.27 407.08 325.96 404.81 C 329.02 410.06 333.15 414.54 336.58 419.52 C 338.51 422.03 337.60 425.26 336.86 428.03 C 335.22 433.84 333.29 439.81 333.91 445.94 C 334.62 450.32 336.49 454.41 338.26 458.45 C 340.10 462.80 344.22 465.47 347.80 468.29 C 352.82 472.40 359.55 472.81 365.67 474.00 L 0.00 474.00 L 0.00 104.29 Z" />
<path fill="#fefeff" d=" M 310.35 135.40 C 315.07 134.63 319.30 137.22 323.30 139.32 C 326.09 140.88 329.40 141.99 331.10 144.92 C 333.93 149.53 338.08 154.01 337.92 159.77 C 337.89 164.15 338.08 168.64 336.90 172.90 C 334.13 181.27 327.17 188.03 318.89 190.91 C 314.40 192.13 309.67 191.73 305.08 191.71 C 301.88 191.77 299.10 190.07 296.59 188.31 C 293.03 185.79 288.68 183.85 286.77 179.67 C 284.12 174.46 280.49 168.92 281.76 162.81 C 282.53 158.98 283.04 155.05 284.39 151.37 C 286.12 147.42 289.09 144.11 292.38 141.38 C 297.38 137.17 304.19 136.61 310.35 135.40 Z" />
<path fill="#fefeff" d=" M 112.36 144.60 C 118.72 144.17 126.08 142.58 131.54 146.79 C 134.98 149.22 139.45 150.58 141.53 154.54 C 144.02 158.89 147.05 163.24 147.62 168.34 C 147.66 176.69 146.05 185.72 139.77 191.76 C 133.47 199.04 123.18 200.58 114.09 200.01 C 106.30 197.94 98.84 193.19 94.99 185.90 C 89.97 179.18 90.60 170.17 92.50 162.46 C 95.69 153.88 103.29 146.52 112.36 144.60 Z" />
<path fill="#fefeff" d=" M 463.84 186.85 C 468.52 182.54 470.93 176.54 474.00 171.11 L 474.00 474.00 L 371.32 474.00 C 375.82 472.11 380.34 470.13 384.45 467.46 C 390.44 463.52 394.11 456.96 396.40 450.32 C 398.52 444.44 397.28 438.07 395.96 432.17 C 394.92 427.51 391.89 423.67 388.96 420.05 C 385.63 415.76 380.33 413.85 375.57 411.63 C 369.46 408.86 362.66 410.75 356.33 411.52 C 351.86 405.26 347.38 399.02 343.06 392.66 C 347.59 386.55 351.99 380.22 354.44 372.95 C 359.55 374.16 364.70 375.27 369.93 375.83 C 377.04 376.58 384.00 378.27 391.13 378.90 C 394.22 379.40 397.81 379.49 400.23 381.76 C 402.44 384.48 403.35 387.95 404.85 391.06 C 406.75 395.52 410.71 398.58 414.30 401.65 C 418.04 404.82 423.08 405.51 427.71 406.53 C 431.24 407.31 434.95 407.50 438.45 406.43 C 446.58 404.05 454.86 399.76 459.04 392.04 C 462.17 386.22 465.33 379.68 464.13 372.89 C 463.60 369.51 462.96 366.13 461.93 362.86 C 460.69 358.91 457.66 355.93 454.99 352.91 C 450.51 347.69 443.77 344.89 437.15 343.66 C 427.19 343.33 415.79 344.86 408.98 352.95 C 406.44 355.39 404.43 359.36 400.49 359.48 C 394.83 359.63 389.40 357.66 383.83 356.97 C 374.93 355.89 366.17 353.91 357.24 353.00 C 358.05 345.66 355.37 338.71 352.77 332.00 C 358.33 326.36 364.56 321.47 371.02 316.92 C 374.61 319.22 378.25 321.84 382.62 322.31 C 387.63 322.87 392.73 322.77 397.72 322.05 C 404.71 320.83 410.11 315.70 414.72 310.65 C 418.19 306.95 420.27 302.07 420.61 297.02 C 421.07 291.07 421.45 284.75 418.85 279.20 C 416.76 274.76 414.48 270.09 410.37 267.16 C 406.22 264.10 402.00 260.28 396.53 260.18 C 391.29 259.98 385.96 259.01 380.76 260.02 C 370.18 263.57 361.60 272.33 358.09 282.90 C 356.65 288.46 358.87 294.15 358.31 299.76 C 357.51 301.65 355.67 302.83 354.16 304.11 C 349.52 307.54 344.77 310.84 340.07 314.18 C 332.37 306.33 321.89 301.17 310.98 299.77 C 306.49 298.91 301.86 298.08 297.33 299.14 C 289.14 300.88 280.25 301.28 273.22 306.34 C 266.70 311.02 261.24 317.00 255.85 322.90 C 251.58 327.49 249.53 333.57 248.67 339.67 C 245.34 339.61 242.01 339.59 238.68 339.73 C 228.64 340.20 218.61 339.38 208.59 338.90 C 207.53 324.26 202.33 309.76 193.16 298.23 C 222.50 269.28 251.36 239.84 280.74 210.94 C 286.00 214.97 292.45 216.78 298.77 218.36 C 305.23 220.13 311.97 219.00 318.54 218.82 C 326.57 218.58 333.71 214.42 340.43 210.42 C 353.21 202.61 361.00 188.95 365.41 175.00 C 370.55 174.20 375.77 173.82 380.98 174.16 C 390.97 174.88 401.04 173.24 410.99 174.77 C 411.89 174.83 412.50 175.30 412.80 176.18 C 414.69 179.74 415.83 183.96 419.19 186.51 C 423.54 189.81 427.80 194.04 433.51 194.59 C 438.47 195.16 443.53 195.90 448.52 195.24 C 454.28 193.98 459.54 190.83 463.84 186.85 Z" />
<path fill="#fefeff" d=" M 115.58 300.74 C 122.34 300.04 129.32 297.86 136.01 300.07 C 138.88 300.92 141.75 301.77 144.62 302.63 C 149.21 303.93 152.60 307.47 156.63 309.83 C 160.91 312.33 163.18 316.92 166.31 320.58 C 169.40 324.13 170.51 328.77 171.43 333.26 C 171.81 333.31 172.55 333.41 172.93 333.46 C 174.27 339.91 173.79 346.51 173.57 353.04 C 172.76 363.10 167.56 372.42 159.98 378.98 C 153.42 386.53 144.20 391.88 134.13 392.68 C 127.81 393.04 121.24 393.83 115.12 391.72 C 111.89 389.01 107.06 389.99 103.81 387.19 C 100.98 384.99 98.28 382.63 95.36 380.55 C 91.65 377.90 89.61 373.72 86.95 370.15 C 83.63 365.75 82.79 360.19 80.98 355.13 C 79.48 351.15 80.05 346.88 80.63 342.80 C 81.23 338.72 81.25 334.51 82.59 330.57 C 87.84 316.11 100.34 303.93 115.58 300.74 Z" />
<path fill="#fefeff" d=" M 297.84 326.78 C 302.34 325.41 307.40 325.61 311.32 328.34 C 314.69 329.94 318.81 330.59 321.11 333.83 C 323.57 337.08 326.34 340.13 328.36 343.68 C 329.90 347.46 329.60 351.64 329.85 355.64 C 330.80 365.64 323.80 374.67 315.61 379.58 C 309.21 383.66 301.35 383.11 294.22 381.84 C 289.21 381.11 285.83 376.90 281.85 374.18 C 278.48 371.87 277.21 367.86 275.65 364.30 C 274.11 360.55 272.46 356.50 273.42 352.38 C 274.90 345.56 277.22 338.41 282.66 333.67 C 286.71 329.57 292.55 328.42 297.84 326.78 Z" />
</svg>
